<svg width="125" height="25" viewBox="0 0 125 25" fill="none" xmlns="http://www.w3.org/2000/svg">
<path d="M0.176 24V1.6H8.464C10.256 1.6 11.7387 1.89867 12.912 2.496C14.0853 3.09333 14.96 3.91467 15.536 4.96C16.112 6.00533 16.4 7.17867 16.4 8.48C16.4 9.71733 16.1227 10.8587 15.568 11.904C15.0133 12.928 14.1493 13.76 12.976 14.4C11.8027 15.0187 10.2987 15.328 8.464 15.328H4.272V24H0.176ZM4.272 12H8.208C9.63733 12 10.6613 11.6907 11.28 11.072C11.92 10.432 12.24 9.568 12.24 8.48C12.24 7.37067 11.92 6.50667 11.28 5.888C10.6613 5.248 9.63733 4.928 8.208 4.928H4.272V12ZM23.9895 24.384C22.6242 24.384 21.5042 24.1707 20.6295 23.744C19.7548 23.296 19.1042 22.7093 18.6775 21.984C18.2508 21.2587 18.0375 20.4587 18.0375 19.584C18.0375 18.112 18.6135 16.9173 19.7655 16C20.9175 15.0827 22.6455 14.624 24.9495 14.624H28.9815V14.24C28.9815 13.152 28.6722 12.352 28.0535 11.84C27.4348 11.328 26.6668 11.072 25.7495 11.072C24.9175 11.072 24.1922 11.2747 23.5735 11.68C22.9548 12.064 22.5708 12.64 22.4215 13.408H18.4215C18.5282 12.256 18.9122 11.2533 19.5735 10.4C20.2562 9.54667 21.1308 8.896 22.1975 8.448C23.2642 7.97867 24.4588 7.744 25.7815 7.744C28.0428 7.744 29.8242 8.30933 31.1255 9.44C32.4268 10.5707 33.0775 12.1707 33.0775 14.24V24H29.5895L29.2055 21.44C28.7362 22.2933 28.0748 22.9973 27.2215 23.552C26.3895 24.1067 25.3122 24.384 23.9895 24.384ZM24.9175 21.184C26.0908 21.184 26.9975 20.8 27.6375 20.032C28.2988 19.264 28.7148 18.3147 28.8855 17.184H25.3975C24.3095 17.184 23.5308 17.3867 23.0615 17.792C22.5922 18.176 22.3575 18.656 22.3575 19.232C22.3575 19.8507 22.5922 20.3307 23.0615 20.672C23.5308 21.0133 24.1495 21.184 24.9175 21.184ZM39.1943 5.664C38.4476 5.664 37.8289 5.44 37.3383 4.992C36.8689 4.544 36.6343 3.97867 36.6343 3.296C36.6343 2.61333 36.8689 2.05867 37.3383 1.632C37.8289 1.184 38.4476 0.959999 39.1943 0.959999C39.9409 0.959999 40.5489 1.184 41.0183 1.632C41.5089 2.05867 41.7543 2.61333 41.7543 3.296C41.7543 3.97867 41.5089 4.544 41.0183 4.992C40.5489 5.44 39.9409 5.664 39.1943 5.664ZM37.1463 24V8.128H41.2423V24H37.1463ZM52.0775 24.384C50.6695 24.384 49.4322 24.16 48.3655 23.712C47.2988 23.2427 46.4455 22.6027 45.8055 21.792C45.1655 20.9813 44.7815 20.0427 44.6535 18.976H48.7815C48.9095 19.5947 49.2508 20.128 49.8055 20.576C50.3815 21.0027 51.1175 21.216 52.0135 21.216C52.9095 21.216 53.5602 21.0347 53.9655 20.672C54.3922 20.3093 54.6055 19.8933 54.6055 19.424C54.6055 18.7413 54.3068 18.2827 53.7095 18.048C53.1122 17.792 52.2802 17.5467 51.2135 17.312C50.5308 17.1627 49.8375 16.9813 49.1335 16.768C48.4295 16.5547 47.7788 16.288 47.1815 15.968C46.6055 15.6267 46.1362 15.2 45.7735 14.688C45.4108 14.1547 45.2295 13.504 45.2295 12.736C45.2295 11.328 45.7842 10.144 46.8935 9.184C48.0242 8.224 49.6028 7.744 51.6295 7.744C53.5068 7.744 55.0002 8.18133 56.1095 9.056C57.2402 9.93067 57.9122 11.136 58.1255 12.672H54.2535C54.0188 11.4987 53.1335 10.912 51.5975 10.912C50.8295 10.912 50.2322 11.0613 49.8055 11.36C49.4002 11.6587 49.1975 12.032 49.1975 12.48C49.1975 12.9493 49.5068 13.3227 50.1255 13.6C50.7442 13.8773 51.5655 14.1333 52.5895 14.368C53.6988 14.624 54.7122 14.912 55.6295 15.232C56.5682 15.5307 57.3148 15.9893 57.8695 16.608C58.4242 17.2053 58.7015 18.0693 58.7015 19.2C58.7228 20.1813 58.4668 21.0667 57.9335 21.856C57.4002 22.6453 56.6322 23.264 55.6295 23.712C54.6268 24.16 53.4428 24.384 52.0775 24.384ZM67.802 24.384C66.4367 24.384 65.3167 24.1707 64.442 23.744C63.5673 23.296 62.9167 22.7093 62.49 21.984C62.0633 21.2587 61.85 20.4587 61.85 19.584C61.85 18.112 62.426 16.9173 63.578 16C64.73 15.0827 66.458 14.624 68.762 14.624H72.794V14.24C72.794 13.152 72.4847 12.352 71.866 11.84C71.2473 11.328 70.4793 11.072 69.562 11.072C68.73 11.072 68.0047 11.2747 67.386 11.68C66.7673 12.064 66.3833 12.64 66.234 13.408H62.234C62.3407 12.256 62.7247 11.2533 63.386 10.4C64.0687 9.54667 64.9433 8.896 66.01 8.448C67.0767 7.97867 68.2713 7.744 69.594 7.744C71.8553 7.744 73.6367 8.30933 74.938 9.44C76.2393 10.5707 76.89 12.1707 76.89 14.24V24H73.402L73.018 21.44C72.5487 22.2933 71.8873 22.9973 71.034 23.552C70.202 24.1067 69.1247 24.384 67.802 24.384ZM68.73 21.184C69.9033 21.184 70.81 20.8 71.45 20.032C72.1113 19.264 72.5273 18.3147 72.698 17.184H69.21C68.122 17.184 67.3433 17.3867 66.874 17.792C66.4047 18.176 66.17 18.656 66.17 19.232C66.17 19.8507 66.4047 20.3307 66.874 20.672C67.3433 21.0133 67.962 21.184 68.73 21.184ZM81.5348 24V11.552H79.3588V8.128H81.5348V6.272C81.5348 4.352 82.0148 2.98667 82.9748 2.176C83.9561 1.36533 85.2788 0.959999 86.9427 0.959999H88.7028V4.448H87.5828C86.8788 4.448 86.3774 4.58667 86.0788 4.864C85.7801 5.14133 85.6308 5.61067 85.6308 6.272V8.128H89.0548V11.552H85.6308V24H81.5348ZM92.2868 24V0.959999H96.3828V24H92.2868ZM102.788 5.664C102.041 5.664 101.423 5.44 100.932 4.992C100.463 4.544 100.228 3.97867 100.228 3.296C100.228 2.61333 100.463 2.05867 100.932 1.632C101.423 1.184 102.041 0.959999 102.788 0.959999C103.535 0.959999 104.143 1.184 104.612 1.632C105.103 2.05867 105.348 2.61333 105.348 3.296C105.348 3.97867 105.103 4.544 104.612 4.992C104.143 5.44 103.535 5.664 102.788 5.664ZM100.74 24V8.128H104.836V24H100.74ZM107.607 24L113.367 16.064L107.607 8.128H111.991L116.023 13.76L120.023 8.128H124.439L118.647 16.064L124.439 24H120.023L116.023 18.368L111.991 24H107.607Z" fill="white"/>
</svg>
